<?xml version="1.0" encoding="iso-8859-1"?>
<!-- Generator: Adobe Illustrator 22.0.1, SVG Export Plug-In . SVG Version: 6.00 Build 0)  -->
<svg version="1.1" xmlns="http://www.w3.org/2000/svg" xmlns:xlink="http://www.w3.org/1999/xlink" x="0px" y="0px"
	 viewBox="0 0 512 512" style="enable-background:new 0 0 512 512;" xml:space="preserve">
<g id="BULINE">
	<circle id="XMLID_515_" style="fill:#AC60FC;" cx="256" cy="256" r="256"/>
</g>
<g id="Icons">
	<g id="XMLID_121_">
		<path id="XMLID_348_" style="fill:#DD1B1B;" d="M440.3,254.911h-365v-143.59c0-9.134,7.404-16.538,16.538-16.538h331.924
			c9.134,0,16.538,7.404,16.538,16.538V254.911z"/>
		<path id="XMLID_347_" style="fill:#BC1919;" d="M440.3,199.909v55h-365v-143.59c0-9.135,7.405-16.54,16.54-16.54h44.46v40.945
			c0,35.448,28.737,64.185,64.185,64.185H440.3z"/>
		<path id="XMLID_346_" style="fill:#FE4583;" d="M440.3,392.73v40.95c-5.88,6.09-12.05,11.89-18.5,17.37
			c-11.06,9.42-22.94,17.91-35.5,25.34C348.13,499.02,303.58,512,256,512c-38.47,0-74.96-8.49-107.7-23.7
			c-27.28-12.66-51.95-29.99-73-50.96v-44.61c0-8.74,7.08-15.82,15.81-15.82h333.38C433.22,376.91,440.3,383.99,440.3,392.73z"/>
		<path id="XMLID_269_" style="fill:#F8D572;" d="M235.8,394.039H75.3V244.878c0-6.057,4.91-10.967,10.967-10.967h138.567
			c6.057,0,10.967,4.91,10.967,10.967V394.039z"/>
		<path id="XMLID_267_" style="fill:#F9BD38;" d="M235.8,244.879v23.17H133.27c-6.06,0-10.97,4.91-10.97,10.97v115.02h-47v-149.16
			c0-6.06,4.91-10.97,10.97-10.97h138.56C230.89,233.909,235.8,238.819,235.8,244.879z"/>
		<path id="XMLID_266_" style="fill:#00B764;" d="M440.3,394.039H235.8V246.29c0-6.837,5.542-12.379,12.379-12.379h179.742
			c6.837,0,12.379,5.542,12.379,12.379V394.039z"/>
		<path id="XMLID_264_" style="fill:#02A054;" d="M440.3,246.289v25.62H306.18c-6.84,0-12.38,5.54-12.38,12.38v109.75h-58v-147.75
			c0-6.84,5.54-12.38,12.38-12.38h179.74C434.76,233.909,440.3,239.449,440.3,246.289z"/>
		<path id="XMLID_263_" style="fill:#EA2D88;" d="M440.3,392.73v22.05H164.11c-8.73,0-15.81,7.08-15.81,15.82v57.7
			c-27.28-12.66-51.95-29.99-73-50.96v-44.61c0-8.74,7.08-15.82,15.81-15.82h333.38C433.22,376.91,440.3,383.99,440.3,392.73z"/>
		<path id="XMLID_261_" style="fill:#DD1B1B;" d="M178.55,57.539h-62.5c-5.661,0-10.25,4.589-10.25,10.25v26.99h83v-26.99
			C188.8,62.128,184.211,57.539,178.55,57.539z"/>
		<path id="XMLID_260_" style="fill:#BC1919;" d="M188.8,79.279v15.5h-83v-26.99c0-5.661,4.589-10.25,10.25-10.25h13.75v10.37
			c0,6.279,5.091,11.37,11.37,11.37H188.8z"/>
		<path id="XMLID_258_" style="fill:#DD1B1B;" d="M289.05,57.539h-62.5c-5.661,0-10.25,4.589-10.25,10.25v26.99h83v-26.99
			C299.3,62.128,294.711,57.539,289.05,57.539z"/>
		<path id="XMLID_257_" style="fill:#BC1919;" d="M299.3,79.279v15.5h-83v-26.99c0-5.661,4.589-10.25,10.25-10.25h13.75v10.37
			c0,6.279,5.091,11.37,11.37,11.37H299.3z"/>
		<path id="XMLID_254_" style="fill:#DD1B1B;" d="M399.55,57.539h-62.5c-5.661,0-10.25,4.589-10.25,10.25v26.99h83v-26.99
			C409.8,62.128,405.211,57.539,399.55,57.539z"/>
		<path id="XMLID_253_" style="fill:#BC1919;" d="M409.8,79.279v15.5h-83v-26.99c0-5.661,4.589-10.25,10.25-10.25h13.75v10.37
			c0,6.279,5.091,11.37,11.37,11.37H409.8z"/>
		<path id="XMLID_252_" style="fill:#EA3434;" d="M414.05,184.039h-20c-4.28,0-7.75-3.47-7.75-7.75v-58c0-4.28,3.47-7.75,7.75-7.75
			h20c4.28,0,7.75,3.47,7.75,7.75v58C421.8,180.569,418.33,184.039,414.05,184.039z"/>
		<path id="XMLID_251_" style="fill:#4ACE99;" d="M414.05,362.2h-20c-4.28,0-7.75-3.47-7.75-7.75v-58c0-4.28,3.47-7.75,7.75-7.75h20
			c4.28,0,7.75,3.47,7.75,7.75v58C421.8,358.731,418.33,362.2,414.05,362.2z"/>
		<path id="XMLID_250_" style="fill:#FFFFFF;" d="M421.8,445.2v5.85c-11.06,9.42-22.94,17.91-35.5,25.34V445.2
			c0-4.28,3.47-7.75,7.75-7.75h20C418.33,437.45,421.8,440.92,421.8,445.2z"/>
	</g>
</g>
</svg>
